# xmcd CD database file
# Copyright (C) 1993-1996 Ti Kan
#
# Track frame offsets:
# 150
# 13445
# 27623
# 40875
# 58283
# 77228
# 94880
# 112208
# 128690
# 143040
#
# Disc length: 2122 seconds
#
# Revision: 0
# Processed by: cddbd v1.4b41PL1 Copyright (c) Steve Scherf et al.
# Submitted via: inCDius 1.1b5
#
DISCID=9408480a
DTITLE=Exile - Exile Super Hits
DYEAR=1900
DGENRE=
TTITLE0=Take Me To The River
TTITLE1=Woke Up In Love
TTITLE2=It'll Be Me
TTITLE3=Just One Kiss
TTITLE4=I Can't Get Close Enough
TTITLE5=I Got Love (Super-Duper Love)
TTITLE6=Feel Like Foolin' Around
TTITLE7=It's You Again
TTITLE8=My Heart's In Good Hands
TTITLE9=Kiss You All Over
EXTD=
EXTT0=
EXTT1=
EXTT2=
EXTT3=
EXTT4=
EXTT5=
EXTT6=
EXTT7=
EXTT8=
EXTT9=
PLAYORDER=
